<?xml version="1.0" encoding="utf-8"?>
<!-- Svg Vector Icons : http://www.onlinewebfonts.com/icon -->
<!DOCTYPE svg PUBLIC "-//W3C//DTD SVG 1.1//EN" "http://www.w3.org/Graphics/SVG/1.1/DTD/svg11.dtd">
<svg version="1.1" xmlns="http://www.w3.org/2000/svg" xmlns:xlink="http://www.w3.org/1999/xlink" x="0px" y="0px" viewBox="0 0 256 256" enable-background="new 0 0 256 256" xml:space="preserve">
<metadata> Svg Vector Icons : http://www.onlinewebfonts.com/icon </metadata>
<g><g><path fill="#000000" d="M198.8,187h-85.2l-32.4,32.4c-3.1,3.7-6.8,6.8-10.5,6.9c-5.8,0-10.5-4.3-11.3-9.8h-0.2v-9.8v-13.1V187h-2C31.1,187,10,166,10,140.2V76.5c0-25.9,21.1-46.8,47.2-46.8h141.6c26.1,0,47.2,21,47.2,46.8v63.7C246,166,224.9,187,198.8,187z M236.2,78.8c0-21.7-17.6-39.3-39.3-39.3H59.2c-21.7,0-39.3,17.6-39.3,39.3v59c0,21.7,17.6,39.3,39.3,39.3h6.6H69v39.3l39.3-39.3h3.3h11.8h73.4c21.7,0,39.3-17.6,39.3-39.3L236.2,78.8L236.2,78.8z"/></g></g>
</svg>